<?xml version="1.0" encoding="UTF-8" standalone="no"?>
<!-- Created with Inkscape (http://www.inkscape.org/) -->

<svg
   version="1.1"
   id="svg1"
   width="316.02667"
   height="34.666668"
   viewBox="0 0 316.02667 34.666668"
   xmlns="http://www.w3.org/2000/svg"
   xmlns:svg="http://www.w3.org/2000/svg">
  <defs
     id="defs1" />
  <g
     id="g1">
    <g
       id="group-R5">
      <path
         id="path2"
         d="M 0,260 V 0 H 2370.2 V 260 H 0"
         style="fill:#140e0c;fill-opacity:1;fill-rule:nonzero;stroke:none"
         transform="matrix(0.13333333,0,0,-0.13333333,0,34.666667)" />
      <path
         id="path3"
         d="M 75.1641,185.715 H 86.1836 V 74.2852 H 75.1641 V 185.715"
         style="fill:#ffffff;fill-opacity:1;fill-rule:nonzero;stroke:none"
         transform="matrix(0.13333333,0,0,-0.13333333,0,34.666667)" />
      <path
         id="path4"
         d="M 132.805,176.133 H 99.9102 v 9.582 h 76.7808 v -9.582 H 143.809 V 74.2852 H 132.805 V 176.133"
         style="fill:#ffffff;fill-opacity:1;fill-rule:nonzero;stroke:none"
         transform="matrix(0.13333333,0,0,-0.13333333,0,34.666667)" />
      <path
         id="path5"
         d="m 316.242,113.242 c 0,-32.8904 -24.101,-40.8709 -40.383,-40.8709 -16.281,0 -40.39,7.9805 -40.39,40.8709 v 72.473 h 11.015 v -72.473 c 0,-18.2029 10.059,-31.2889 29.375,-31.2889 19.305,0 29.368,13.086 29.368,31.2889 v 72.473 h 11.015 v -72.473"
         style="fill:#ffffff;fill-opacity:1;fill-rule:nonzero;stroke:none"
         transform="matrix(0.13333333,0,0,-0.13333333,0,34.666667)" />
      <path
         id="path6"
         d="m 341.34,185.715 h 13.887 l 56.668,-98.0197 h 0.324 v 98.0197 h 11.015 V 74.2852 h -14.843 l -55.723,96.0978 h -0.324 V 74.2852 H 341.34 V 185.715"
         style="fill:#ffffff;fill-opacity:1;fill-rule:nonzero;stroke:none"
         transform="matrix(0.13333333,0,0,-0.13333333,0,34.666667)" />
      <path
         id="path7"
         d="m 447.832,185.715 h 11.016 V 74.2852 H 447.832 V 185.715"
         style="fill:#ffffff;fill-opacity:1;fill-rule:nonzero;stroke:none"
         transform="matrix(0.13333333,0,0,-0.13333333,0,34.666667)" />
      <path
         id="path8"
         d="M 525.266,74.2852 H 513.449 L 471.945,185.715 h 11.66 L 519.523,85.3047 556.711,185.715 h 10.848 L 525.266,74.2852"
         style="fill:#ffffff;fill-opacity:1;fill-rule:nonzero;stroke:none"
         transform="matrix(0.13333333,0,0,-0.13333333,0,34.666667)" />
      <path
         id="path9"
         d="m 582.277,185.715 h 54.59 v -9.582 h -43.574 v -39.746 h 41.348 v -9.578 H 593.293 V 83.8672 h 45.488 v -9.582 H 582.277 V 185.715"
         style="fill:#ffffff;fill-opacity:1;fill-rule:nonzero;stroke:none"
         transform="matrix(0.13333333,0,0,-0.13333333,0,34.666667)" />
      <path
         id="path10"
         d="m 673.449,136.387 h 11.641 c 12.93,0 27.793,4.941 27.793,20.429 0,18.196 -12.93,19.317 -28.106,19.317 h -11.328 z m -11.015,49.328 h 28.726 c 19.809,0 32.738,-8.457 32.738,-28.899 0,-14.367 -11.015,-23.945 -24.746,-25.703 v -0.312 c 8.934,-1.121 10.848,-5.906 14.356,-13.406 l 19.004,-43.1098 h -12.129 l -16.125,37.6798 c -6.395,14.363 -11.18,14.844 -21.707,14.844 h -9.102 V 74.2852 H 662.434 V 185.715"
         style="fill:#ffffff;fill-opacity:1;fill-rule:nonzero;stroke:none"
         transform="matrix(0.13333333,0,0,-0.13333333,0,34.666667)" />
      <path
         id="path11"
         d="m 747.863,88.4961 c 6.543,-4.1484 14.2,-6.543 24.578,-6.543 13.719,0 25.059,7.0235 25.059,22.8239 0,21.875 -51.082,24.586 -51.082,53.797 0,17.879 15.645,29.051 35.273,29.051 5.438,0 14.219,-0.801 21.875,-3.672 l -1.757,-10.055 c -4.942,2.715 -12.766,4.149 -20.274,4.149 -11.484,0 -24.101,-4.785 -24.101,-19.16 0,-22.344 51.082,-22.5 51.082,-55.059 0,-22.5194 -19.317,-31.4569 -36.551,-31.4569 -10.86,0 -19.317,2.2383 -25.235,4.7852 l 1.133,11.3398"
         style="fill:#ffffff;fill-opacity:1;fill-rule:nonzero;stroke:none"
         transform="matrix(0.13333333,0,0,-0.13333333,0,34.666667)" />
      <path
         id="path12"
         d="m 829.285,185.715 h 11.02 V 74.2852 h -11.02 V 185.715"
         style="fill:#ffffff;fill-opacity:1;fill-rule:nonzero;stroke:none"
         transform="matrix(0.13333333,0,0,-0.13333333,0,34.666667)" />
      <path
         id="path13"
         d="m 886.926,176.133 h -32.891 v 9.582 h 76.785 v -9.582 H 897.93 V 74.2852 H 886.926 V 176.133"
         style="fill:#ffffff;fill-opacity:1;fill-rule:nonzero;stroke:none"
         transform="matrix(0.13333333,0,0,-0.13333333,0,34.666667)" />
      <path
         id="path14"
         d="m 975.535,121.543 -41.344,64.172 h 12.774 l 34.004,-54.434 34.961,54.434 h 11.96 L 986.555,121.543 V 74.2852 h -11.02 v 47.2578"
         style="fill:#ffffff;fill-opacity:1;fill-rule:nonzero;stroke:none"
         transform="matrix(0.13333333,0,0,-0.13333333,0,34.666667)" />
      <path
         id="path15"
         d="m 1093.86,130 c 0,-23.621 11.81,-48.0469 37.99,-48.0469 26.18,0 37.99,24.4259 37.99,48.0469 0,23.621 -11.81,48.047 -37.99,48.047 -26.18,0 -37.99,-24.426 -37.99,-48.047 z m 37.99,57.625 c 33.53,0 49.33,-27.461 49.01,-57.625 -0.32,-34.1602 -16.92,-57.6289 -49.01,-57.6289 -32.07,0 -48.69,23.4687 -49.01,57.6289 -0.31,30.164 15.49,57.625 49.01,57.625"
         style="fill:#ffffff;fill-opacity:1;fill-rule:nonzero;stroke:none"
         transform="matrix(0.13333333,0,0,-0.13333333,0,34.666667)" />
      <path
         id="path16"
         d="m 1201.8,185.715 h 52.99 v -9.582 h -41.98 v -39.746 h 40.07 v -9.578 h -40.07 V 74.2852 H 1201.8 V 185.715"
         style="fill:#ffffff;fill-opacity:1;fill-rule:nonzero;stroke:none"
         transform="matrix(0.13333333,0,0,-0.13333333,0,34.666667)" />
      <path
         id="path17"
         d="m 1394.98,173.262 c -7.02,3.672 -17.08,4.785 -24.91,4.785 -28.89,0 -45.18,-20.43 -45.18,-48.047 0,-28.094 15.81,-48.0469 45.18,-48.0469 7.34,0 18.52,0.9571 24.91,4.7852 l 0.64,-9.582 c -6.06,-3.6602 -18.52,-4.7852 -25.55,-4.7852 -35.12,0 -56.18,23.1484 -56.18,57.6289 0,33.848 21.71,57.625 56.18,57.625 6.54,0 19.8,-1.121 25.55,-4.148 l -0.64,-10.215"
         style="fill:#ffffff;fill-opacity:1;fill-rule:nonzero;stroke:none"
         transform="matrix(0.13333333,0,0,-0.13333333,0,34.666667)" />
      <path
         id="path18"
         d="m 1430.92,130 c 0,-23.621 11.81,-48.0469 38,-48.0469 26.17,0 37.99,24.4259 37.99,48.0469 0,23.621 -11.82,48.047 -37.99,48.047 -26.19,0 -38,-24.426 -38,-48.047 z m 38,57.625 c 33.51,0 49.31,-27.461 49,-57.625 -0.31,-34.1602 -16.91,-57.6289 -49,-57.6289 -32.09,0 -48.69,23.4687 -49.02,57.6289 -0.32,30.164 15.49,57.625 49.02,57.625"
         style="fill:#ffffff;fill-opacity:1;fill-rule:nonzero;stroke:none"
         transform="matrix(0.13333333,0,0,-0.13333333,0,34.666667)" />
      <path
         id="path19"
         d="m 1551.31,132.078 h 7.67 c 16.6,0 32.24,1.914 32.24,22.035 0,14.043 -7.99,22.02 -22.03,22.02 h -17.88 z m -11.02,53.637 h 27.46 c 20.91,0 34.49,-10.539 34.49,-31.602 0,-20.761 -15.65,-31.613 -35.61,-31.613 h -15.32 V 74.2852 h -11.02 V 185.715"
         style="fill:#ffffff;fill-opacity:1;fill-rule:nonzero;stroke:none"
         transform="matrix(0.13333333,0,0,-0.13333333,0,34.666667)" />
      <path
         id="path20"
         d="m 1620.13,185.715 h 54.59 v -9.582 h -43.58 v -39.746 h 41.35 v -9.578 h -41.35 V 83.8672 h 45.51 v -9.582 h -56.52 V 185.715"
         style="fill:#ffffff;fill-opacity:1;fill-rule:nonzero;stroke:none"
         transform="matrix(0.13333333,0,0,-0.13333333,0,34.666667)" />
      <path
         id="path21"
         d="m 1698.53,185.715 h 13.89 l 56.67,-98.0197 h 0.32 v 98.0197 h 11.01 V 74.2852 h -14.84 l -55.71,96.0978 h -0.33 V 74.2852 h -11.01 V 185.715"
         style="fill:#ffffff;fill-opacity:1;fill-rule:nonzero;stroke:none"
         transform="matrix(0.13333333,0,0,-0.13333333,0,34.666667)" />
      <path
         id="path22"
         d="m 1806.79,185.715 h 11.01 v -49.328 h 56.35 v 49.328 h 11.02 V 74.2852 h -11.02 V 126.809 H 1817.8 V 74.2852 h -11.01 V 185.715"
         style="fill:#ffffff;fill-opacity:1;fill-rule:nonzero;stroke:none"
         transform="matrix(0.13333333,0,0,-0.13333333,0,34.666667)" />
      <path
         id="path23"
         d="m 1952.39,175.176 -24.25,-61.465 h 48.36 z m -5.43,10.539 h 12.46 l 44.22,-111.4298 h -11.5 l -11.96,29.8558 h -56.2 l -11.97,-29.8558 h -10.69 l 45.64,111.4298"
         style="fill:#ffffff;fill-opacity:1;fill-rule:nonzero;stroke:none"
         transform="matrix(0.13333333,0,0,-0.13333333,0,34.666667)" />
      <path
         id="path24"
         d="m 2095.77,125.059 h -25.86 v 9.57 h 36.88 V 79.2383 c -11.34,-4.9531 -22.36,-6.8672 -34.64,-6.8672 -35.13,0 -56.19,23.1484 -56.19,57.6289 0,33.848 21.71,57.625 56.19,57.625 8.46,0 22.35,-1.434 29.85,-5.262 l -1.28,-10.215 c -8.62,4.786 -18.84,5.899 -28.57,5.899 -28.9,0 -45.18,-20.43 -45.18,-48.047 0,-28.094 15.81,-48.0469 45.18,-48.0469 6.86,0 18.35,0.7891 23.62,3.9844 v 39.1215"
         style="fill:#ffffff;fill-opacity:1;fill-rule:nonzero;stroke:none"
         transform="matrix(0.13333333,0,0,-0.13333333,0,34.666667)" />
      <path
         id="path25"
         d="m 2134.76,185.715 h 54.59 v -9.582 h -43.58 v -39.746 h 41.35 v -9.578 h -41.35 V 83.8672 h 45.49 v -9.582 h -56.5 V 185.715"
         style="fill:#ffffff;fill-opacity:1;fill-rule:nonzero;stroke:none"
         transform="matrix(0.13333333,0,0,-0.13333333,0,34.666667)" />
      <path
         id="path26"
         d="m 2213.14,185.715 h 13.9 l 56.66,-98.0197 h 0.32 v 98.0197 h 11.02 V 74.2852 h -14.84 l -55.72,96.0978 h -0.32 V 74.2852 h -11.02 V 185.715"
         style="fill:#ffffff;fill-opacity:1;fill-rule:nonzero;stroke:none"
         transform="matrix(0.13333333,0,0,-0.13333333,0,34.666667)" />
    </g>
  </g>
</svg>
